solid OpenSCAD_Model
  facet normal 1 -0 0
    outer loop
      vertex 22 2 18
      vertex 22 16.6 0
      vertex 22 16.6 18
    endloop
  endfacet
  facet normal 1 0 0
    outer loop
      vertex 22 16.6 0
      vertex 22 2 18
      vertex 22 2 0
    endloop
  endfacet
  facet normal 0 0 1
    outer loop
      vertex 22 16.6 18
      vertex 19 15.6 18
      vertex 22 2 18
    endloop
  endfacet
  facet normal -0 0 1
    outer loop
      vertex 0 16.6 18
      vertex 19 15.6 18
      vertex 22 16.6 18
    endloop
  endfacet
  facet normal 0 0 1
    outer loop
      vertex 19 15.6 18
      vertex 0 16.6 18
      vertex 0 15.6 18
    endloop
  endfacet
  facet normal -0 0 1
    outer loop
      vertex 22.9061 16.9045 18
      vertex 23.2 16 18
      vertex 23.2 17 18
    endloop
  endfacet
  facet normal 0 0 1
    outer loop
      vertex 22.9061 16.9045 18
      vertex 22.9061 16.0955 18
      vertex 23.2 16 18
    endloop
  endfacet
  facet normal -0 0 1
    outer loop
      vertex 22.7245 16.6545 18
      vertex 22.9061 16.0955 18
      vertex 22.9061 16.9045 18
    endloop
  endfacet
  facet normal 0 0 1
    outer loop
      vertex 22.9061 16.0955 18
      vertex 22.7245 16.6545 18
      vertex 22.7245 16.3455 18
    endloop
  endfacet
  facet normal 0 0 1
    outer loop
      vertex 23.2 16 18
      vertex 24.2 17 18
      vertex 23.2 17 18
    endloop
  endfacet
  facet normal 0 0 1
    outer loop
      vertex 23.2 2 18
      vertex 24.2 17 18
      vertex 23.2 16 18
    endloop
  endfacet
  facet normal 0 0 1
    outer loop
      vertex 24.2 17 18
      vertex 23.2 2 18
      vertex 24.2 0 18
    endloop
  endfacet
  facet normal -0 0 1
    outer loop
      vertex 22 2 18
      vertex 24.2 0 18
      vertex 23.2 2 18
    endloop
  endfacet
  facet normal 0 0 1
    outer loop
      vertex 19 2 18
      vertex 22 2 18
      vertex 19 15.6 18
    endloop
  endfacet
  facet normal -0 0 1
    outer loop
      vertex 19 2 18
      vertex 24.2 0 18
      vertex 22 2 18
    endloop
  endfacet
  facet normal 0 0 1
    outer loop
      vertex 0 0 18
      vertex 19 2 18
      vertex 0 2 18
    endloop
  endfacet
  facet normal 0 0 1
    outer loop
      vertex 19 2 18
      vertex 0 0 18
      vertex 24.2 0 18
    endloop
  endfacet
  facet normal 1 -0 0
    outer loop
      vertex 24.2 0 18
      vertex 24.2 17 0
      vertex 24.2 17 18
    endloop
  endfacet
  facet normal 1 0 0
    outer loop
      vertex 24.2 17 0
      vertex 24.2 0 18
      vertex 24.2 0 0
    endloop
  endfacet
  facet normal 0 0 -1
    outer loop
      vertex 24.2 0 0
      vertex 23.2 2 0
      vertex 24.2 17 0
    endloop
  endfacet
  facet normal 0 0 -1
    outer loop
      vertex 24.2 0 0
      vertex 22 2 0
      vertex 23.2 2 0
    endloop
  endfacet
  facet normal 0 0 -1
    outer loop
      vertex 19 15.6 0
      vertex 22 2 0
      vertex 19 2 0
    endloop
  endfacet
  facet normal 0 0 -1
    outer loop
      vertex 24.2 0 0
      vertex 19 2 0
      vertex 22 2 0
    endloop
  endfacet
  facet normal 0 0 -1
    outer loop
      vertex 0 0 0
      vertex 19 2 0
      vertex 24.2 0 0
    endloop
  endfacet
  facet normal -0 0 -1
    outer loop
      vertex 19 2 0
      vertex 0 0 0
      vertex 0 2 0
    endloop
  endfacet
  facet normal 0 0 -1
    outer loop
      vertex 23.2 16 0
      vertex 24.2 17 0
      vertex 23.2 2 0
    endloop
  endfacet
  facet normal 0 0 -1
    outer loop
      vertex 23.2 16 0
      vertex 23.2 17 0
      vertex 24.2 17 0
    endloop
  endfacet
  facet normal 0 0 -1
    outer loop
      vertex 22.9061 16.0955 0
      vertex 23.2 17 0
      vertex 23.2 16 0
    endloop
  endfacet
  facet normal 0 0 -1
    outer loop
      vertex 22.9061 16.0955 0
      vertex 22.9061 16.9045 0
      vertex 23.2 17 0
    endloop
  endfacet
  facet normal 0 0 -1
    outer loop
      vertex 22.7245 16.3455 0
      vertex 22.9061 16.9045 0
      vertex 22.9061 16.0955 0
    endloop
  endfacet
  facet normal 0 0 -1
    outer loop
      vertex 22.9061 16.9045 0
      vertex 22.7245 16.3455 0
      vertex 22.7245 16.6545 0
    endloop
  endfacet
  facet normal 0 0 -1
    outer loop
      vertex 22 2 0
      vertex 19 15.6 0
      vertex 22 16.6 0
    endloop
  endfacet
  facet normal 0 0 -1
    outer loop
      vertex 0 16.6 0
      vertex 19 15.6 0
      vertex 0 15.6 0
    endloop
  endfacet
  facet normal 0 0 -1
    outer loop
      vertex 19 15.6 0
      vertex 0 16.6 0
      vertex 22 16.6 0
    endloop
  endfacet
  facet normal 0 -1 0
    outer loop
      vertex 15 0 13
      vertex 0 0 18
      vertex 5 0 13
    endloop
  endfacet
  facet normal 0 -1 0
    outer loop
      vertex 0 0 18
      vertex 5 0 5
      vertex 5 0 13
    endloop
  endfacet
  facet normal 0 -1 -0
    outer loop
      vertex 5 0 5
      vertex 0 0 0
      vertex 15 0 5
    endloop
  endfacet
  facet normal 0 -1 0
    outer loop
      vertex 0 0 0
      vertex 5 0 5
      vertex 0 0 18
    endloop
  endfacet
  facet normal 0 -1 0
    outer loop
      vertex 0 0 18
      vertex 15 0 13
      vertex 24.2 0 18
    endloop
  endfacet
  facet normal 0 -1 0
    outer loop
      vertex 15 0 5
      vertex 24.2 0 18
      vertex 15 0 13
    endloop
  endfacet
  facet normal 0 -1 0
    outer loop
      vertex 15 0 5
      vertex 24.2 0 0
      vertex 24.2 0 18
    endloop
  endfacet
  facet normal 0 -1 0
    outer loop
      vertex 24.2 0 0
      vertex 15 0 5
      vertex 0 0 0
    endloop
  endfacet
  facet normal 0 1 -0
    outer loop
      vertex 23.2 2 0
      vertex 22 2 18
      vertex 23.2 2 18
    endloop
  endfacet
  facet normal 0 1 0
    outer loop
      vertex 22 2 18
      vertex 23.2 2 0
      vertex 22 2 0
    endloop
  endfacet
  facet normal -1 0 0
    outer loop
      vertex 23.2 2 0
      vertex 23.2 16 18
      vertex 23.2 16 0
    endloop
  endfacet
  facet normal -1 -0 0
    outer loop
      vertex 23.2 16 18
      vertex 23.2 2 0
      vertex 23.2 2 18
    endloop
  endfacet
  facet normal 0 1 -0
    outer loop
      vertex 24.2 17 0
      vertex 23.2 17 18
      vertex 24.2 17 18
    endloop
  endfacet
  facet normal 0 1 0
    outer loop
      vertex 23.2 17 18
      vertex 24.2 17 0
      vertex 23.2 17 0
    endloop
  endfacet
  facet normal -1 0 0
    outer loop
      vertex 22.7245 16.3455 0
      vertex 22.7245 16.6545 18
      vertex 22.7245 16.6545 0
    endloop
  endfacet
  facet normal -1 -0 0
    outer loop
      vertex 22.7245 16.6545 18
      vertex 22.7245 16.3455 0
      vertex 22.7245 16.3455 18
    endloop
  endfacet
  facet normal -0.309035 -0.951051 0
    outer loop
      vertex 22.9061 16.0955 0
      vertex 23.2 16 18
      vertex 22.9061 16.0955 18
    endloop
  endfacet
  facet normal -0.309035 -0.951051 -0
    outer loop
      vertex 23.2 16 18
      vertex 22.9061 16.0955 0
      vertex 23.2 16 0
    endloop
  endfacet
  facet normal -0.809072 -0.58771 0
    outer loop
      vertex 22.9061 16.0955 0
      vertex 22.7245 16.3455 18
      vertex 22.7245 16.3455 0
    endloop
  endfacet
  facet normal -0.809072 -0.58771 0
    outer loop
      vertex 22.7245 16.3455 18
      vertex 22.9061 16.0955 0
      vertex 22.9061 16.0955 18
    endloop
  endfacet
  facet normal -0.809072 0.58771 0
    outer loop
      vertex 22.7245 16.6545 0
      vertex 22.9061 16.9045 18
      vertex 22.9061 16.9045 0
    endloop
  endfacet
  facet normal -0.809072 0.58771 0
    outer loop
      vertex 22.9061 16.9045 18
      vertex 22.7245 16.6545 0
      vertex 22.7245 16.6545 18
    endloop
  endfacet
  facet normal -0.309035 0.951051 0
    outer loop
      vertex 23.2 17 0
      vertex 22.9061 16.9045 18
      vertex 23.2 17 18
    endloop
  endfacet
  facet normal -0.309035 0.951051 0
    outer loop
      vertex 22.9061 16.9045 18
      vertex 23.2 17 0
      vertex 22.9061 16.9045 0
    endloop
  endfacet
  facet normal -1 0 0
    outer loop
      vertex 24.2 0 0
      vertex 24.2 2 18
      vertex 24.2 2 0
    endloop
  endfacet
  facet normal -1 -0 0
    outer loop
      vertex 24.2 2 18
      vertex 24.2 0 0
      vertex 24.2 0 18
    endloop
  endfacet
  facet normal -0 0 1
    outer loop
      vertex 25.1061 16.9045 18
      vertex 25.4 16 18
      vertex 25.4 17 18
    endloop
  endfacet
  facet normal 0 0 1
    outer loop
      vertex 25.1061 16.9045 18
      vertex 25.1061 16.0955 18
      vertex 25.4 16 18
    endloop
  endfacet
  facet normal -0 0 1
    outer loop
      vertex 24.9245 16.6545 18
      vertex 25.1061 16.0955 18
      vertex 25.1061 16.9045 18
    endloop
  endfacet
  facet normal 0 0 1
    outer loop
      vertex 25.1061 16.0955 18
      vertex 24.9245 16.6545 18
      vertex 24.9245 16.3455 18
    endloop
  endfacet
  facet normal 0 0 1
    outer loop
      vertex 25.4 16 18
      vertex 26.4 17 18
      vertex 25.4 17 18
    endloop
  endfacet
  facet normal 0 0 1
    outer loop
      vertex 25.4 2 18
      vertex 26.4 17 18
      vertex 25.4 16 18
    endloop
  endfacet
  facet normal 0 0 1
    outer loop
      vertex 26.4 17 18
      vertex 25.4 2 18
      vertex 26.4 0 18
    endloop
  endfacet
  facet normal 0 0 1
    outer loop
      vertex 24.2 0 18
      vertex 25.4 2 18
      vertex 24.2 2 18
    endloop
  endfacet
  facet normal 0 0 1
    outer loop
      vertex 25.4 2 18
      vertex 24.2 0 18
      vertex 26.4 0 18
    endloop
  endfacet
  facet normal 1 -0 0
    outer loop
      vertex 26.4 0 18
      vertex 26.4 17 0
      vertex 26.4 17 18
    endloop
  endfacet
  facet normal 1 0 0
    outer loop
      vertex 26.4 17 0
      vertex 26.4 0 18
      vertex 26.4 0 0
    endloop
  endfacet
  facet normal 0 0 -1
    outer loop
      vertex 26.4 0 0
      vertex 25.4 2 0
      vertex 26.4 17 0
    endloop
  endfacet
  facet normal 0 0 -1
    outer loop
      vertex 24.2 0 0
      vertex 25.4 2 0
      vertex 26.4 0 0
    endloop
  endfacet
  facet normal -0 0 -1
    outer loop
      vertex 25.4 2 0
      vertex 24.2 0 0
      vertex 24.2 2 0
    endloop
  endfacet
  facet normal 0 0 -1
    outer loop
      vertex 25.4 16 0
      vertex 26.4 17 0
      vertex 25.4 2 0
    endloop
  endfacet
  facet normal 0 0 -1
    outer loop
      vertex 25.4 16 0
      vertex 25.4 17 0
      vertex 26.4 17 0
    endloop
  endfacet
  facet normal 0 0 -1
    outer loop
      vertex 25.1061 16.0955 0
      vertex 25.4 17 0
      vertex 25.4 16 0
    endloop
  endfacet
  facet normal 0 0 -1
    outer loop
      vertex 25.1061 16.0955 0
      vertex 25.1061 16.9045 0
      vertex 25.4 17 0
    endloop
  endfacet
  facet normal 0 0 -1
    outer loop
      vertex 24.9245 16.3455 0
      vertex 25.1061 16.9045 0
      vertex 25.1061 16.0955 0
    endloop
  endfacet
  facet normal 0 0 -1
    outer loop
      vertex 25.1061 16.9045 0
      vertex 24.9245 16.3455 0
      vertex 24.9245 16.6545 0
    endloop
  endfacet
  facet normal 0 -1 0
    outer loop
      vertex 24.2 0 0
      vertex 26.4 0 18
      vertex 24.2 0 18
    endloop
  endfacet
  facet normal 0 -1 -0
    outer loop
      vertex 26.4 0 18
      vertex 24.2 0 0
      vertex 26.4 0 0
    endloop
  endfacet
  facet normal 0 1 -0
    outer loop
      vertex 25.4 2 0
      vertex 24.2 2 18
      vertex 25.4 2 18
    endloop
  endfacet
  facet normal 0 1 0
    outer loop
      vertex 24.2 2 18
      vertex 25.4 2 0
      vertex 24.2 2 0
    endloop
  endfacet
  facet normal -1 0 0
    outer loop
      vertex 25.4 2 0
      vertex 25.4 16 18
      vertex 25.4 16 0
    endloop
  endfacet
  facet normal -1 -0 0
    outer loop
      vertex 25.4 16 18
      vertex 25.4 2 0
      vertex 25.4 2 18
    endloop
  endfacet
  facet normal 0 1 -0
    outer loop
      vertex 26.4 17 0
      vertex 25.4 17 18
      vertex 26.4 17 18
    endloop
  endfacet
  facet normal 0 1 0
    outer loop
      vertex 25.4 17 18
      vertex 26.4 17 0
      vertex 25.4 17 0
    endloop
  endfacet
  facet normal -1 0 0
    outer loop
      vertex 24.9245 16.3455 0
      vertex 24.9245 16.6545 18
      vertex 24.9245 16.6545 0
    endloop
  endfacet
  facet normal -1 -0 0
    outer loop
      vertex 24.9245 16.6545 18
      vertex 24.9245 16.3455 0
      vertex 24.9245 16.3455 18
    endloop
  endfacet
  facet normal -0.309035 -0.951051 0
    outer loop
      vertex 25.1061 16.0955 0
      vertex 25.4 16 18
      vertex 25.1061 16.0955 18
    endloop
  endfacet
  facet normal -0.309035 -0.951051 -0
    outer loop
      vertex 25.4 16 18
      vertex 25.1061 16.0955 0
      vertex 25.4 16 0
    endloop
  endfacet
  facet normal -0.809072 -0.58771 0
    outer loop
      vertex 25.1061 16.0955 0
      vertex 24.9245 16.3455 18
      vertex 24.9245 16.3455 0
    endloop
  endfacet
  facet normal -0.809072 -0.58771 0
    outer loop
      vertex 24.9245 16.3455 18
      vertex 25.1061 16.0955 0
      vertex 25.1061 16.0955 18
    endloop
  endfacet
  facet normal -0.809072 0.58771 0
    outer loop
      vertex 24.9245 16.6545 0
      vertex 25.1061 16.9045 18
      vertex 25.1061 16.9045 0
    endloop
  endfacet
  facet normal -0.809072 0.58771 0
    outer loop
      vertex 25.1061 16.9045 18
      vertex 24.9245 16.6545 0
      vertex 24.9245 16.6545 18
    endloop
  endfacet
  facet normal -0.309035 0.951051 0
    outer loop
      vertex 25.4 17 0
      vertex 25.1061 16.9045 18
      vertex 25.4 17 18
    endloop
  endfacet
  facet normal -0.309035 0.951051 0
    outer loop
      vertex 25.1061 16.9045 18
      vertex 25.4 17 0
      vertex 25.1061 16.9045 0
    endloop
  endfacet
  facet normal -1 0 0
    outer loop
      vertex 0 0 0
      vertex 0 2 18
      vertex 0 2 0
    endloop
  endfacet
  facet normal -1 -0 0
    outer loop
      vertex 0 2 18
      vertex 0 0 0
      vertex 0 0 18
    endloop
  endfacet
  facet normal -1 0 0
    outer loop
      vertex 0 15.6 0
      vertex 0 16.6 18
      vertex 0 16.6 0
    endloop
  endfacet
  facet normal -1 -0 0
    outer loop
      vertex 0 16.6 18
      vertex 0 15.6 0
      vertex 0 15.6 18
    endloop
  endfacet
  facet normal 0 1 -0
    outer loop
      vertex 22 16.6 0
      vertex 0 16.6 18
      vertex 22 16.6 18
    endloop
  endfacet
  facet normal 0 1 0
    outer loop
      vertex 0 16.6 18
      vertex 22 16.6 0
      vertex 0 16.6 0
    endloop
  endfacet
  facet normal -1 0 0
    outer loop
      vertex 19 2 0
      vertex 19 15.6 18
      vertex 19 15.6 0
    endloop
  endfacet
  facet normal -1 -0 0
    outer loop
      vertex 19 15.6 18
      vertex 19 2 0
      vertex 19 2 18
    endloop
  endfacet
  facet normal 0 -1 0
    outer loop
      vertex 0 15.6 0
      vertex 19 15.6 18
      vertex 0 15.6 18
    endloop
  endfacet
  facet normal 0 -1 -0
    outer loop
      vertex 19 15.6 18
      vertex 0 15.6 0
      vertex 19 15.6 0
    endloop
  endfacet
  facet normal 0 1 0
    outer loop
      vertex 5 2 13
      vertex 19 2 18
      vertex 15 2 13
    endloop
  endfacet
  facet normal 0 1 0
    outer loop
      vertex 19 2 18
      vertex 15 2 5
      vertex 15 2 13
    endloop
  endfacet
  facet normal 0 1 0
    outer loop
      vertex 15 2 5
      vertex 19 2 0
      vertex 5 2 5
    endloop
  endfacet
  facet normal 0 1 -0
    outer loop
      vertex 19 2 0
      vertex 15 2 5
      vertex 19 2 18
    endloop
  endfacet
  facet normal 0 1 0
    outer loop
      vertex 19 2 18
      vertex 5 2 13
      vertex 0 2 18
    endloop
  endfacet
  facet normal 0 1 -0
    outer loop
      vertex 5 2 5
      vertex 0 2 18
      vertex 5 2 13
    endloop
  endfacet
  facet normal 0 1 0
    outer loop
      vertex 5 2 5
      vertex 0 2 0
      vertex 0 2 18
    endloop
  endfacet
  facet normal 0 1 0
    outer loop
      vertex 0 2 0
      vertex 5 2 5
      vertex 19 2 0
    endloop
  endfacet
  facet normal 1 -0 0
    outer loop
      vertex 5 0 13
      vertex 5 2 5
      vertex 5 2 13
    endloop
  endfacet
  facet normal 1 0 0
    outer loop
      vertex 5 2 5
      vertex 5 0 13
      vertex 5 0 5
    endloop
  endfacet
  facet normal 0 0 -1
    outer loop
      vertex 5 0 13
      vertex 15 2 13
      vertex 15 0 13
    endloop
  endfacet
  facet normal -0 0 -1
    outer loop
      vertex 15 2 13
      vertex 5 0 13
      vertex 5 2 13
    endloop
  endfacet
  facet normal -1 0 0
    outer loop
      vertex 15 0 5
      vertex 15 2 13
      vertex 15 2 5
    endloop
  endfacet
  facet normal -1 -0 0
    outer loop
      vertex 15 2 13
      vertex 15 0 5
      vertex 15 0 13
    endloop
  endfacet
  facet normal -0 0 1
    outer loop
      vertex 5 2 5
      vertex 15 0 5
      vertex 15 2 5
    endloop
  endfacet
  facet normal 0 0 1
    outer loop
      vertex 15 0 5
      vertex 5 2 5
      vertex 5 0 5
    endloop
  endfacet
endsolid OpenSCAD_Model
